# xmcd CD database file
#
# Track frame offsets:
#	150
#	22744
#	47420
#	77882
#	102073
#	123753
#
# Disc length: 2096 seconds
#
# Revision: 0
# Processed by: cddbd v1.5.2PL0 Copyright (c) Steve Scherf et al.
# Submitted via: CDex 1.70beta2
#
DISCID=35082e06
DTITLE=Guillermo Marigliano Trio - Acuarela
DYEAR=2013
DGENRE=Jazz
TTITLE0=Blues soul
TTITLE1=Last Esponosa
TTITLE2=Changes
TTITLE3=Fuimos tan felices
TTITLE4=Corazon latino
TTITLE5=Bs As 4 AM
EXTD=YEAR: 2013
EXTT0=
EXTT1=
EXTT2=
EXTT3=
EXTT4=
EXTT5=
PLAYORDER=
